<svg width="306" height="29" viewBox="0 0 306 29" fill="none" xmlns="http://www.w3.org/2000/svg">
<g clip-path="url(#clip0_7568_63910)">
<path d="M304.014 11.6432H293.152V5.38518H305.145V0.577148H288.117V28.4228H305.145V23.6148H293.152V16.4512H304.014V11.6432Z" fill="#12121a"/>
<path d="M276.097 28.4228V0.577148H271.171L271.247 17.9335L260.199 0.577148H256.258V28.4228H261.184L261.107 10.6999L272.155 28.4228H276.097Z" fill="#12121a"/>
<path d="M234.542 24.1916C229.801 24.1916 229.111 19.4536 229.111 14.5001C229.111 9.54649 229.801 4.80852 234.542 4.80852C239.283 4.80852 239.974 9.54649 239.974 14.5001C239.974 19.4536 239.283 24.1916 234.542 24.1916ZM234.542 0.000488281C225.207 0.000488281 223.93 7.41737 223.93 14.5001C223.93 21.5828 225.207 28.9996 234.542 28.9996C243.877 28.9996 245.15 21.5828 245.15 14.5001C245.15 7.41737 243.91 0.000488281 234.542 0.000488281Z" fill="#12121a"/>
<path d="M212.455 28.4228V0.577148H207.421V11.6432H197.945V0.577148H192.91V28.4228H197.945V16.4512H207.421V28.4228H212.455Z" fill="#12121a"/>
<path d="M173.156 13.4543H169.182V5.39057H173.156C176.696 5.39057 177.348 7.48735 177.348 9.22299C177.348 10.9586 176.69 13.4543 173.156 13.4543ZM173.08 0.577148H164.109V28.4228H169.176V18.2623H173.08C180.224 18.2623 182.703 13.7723 182.703 9.22299C182.703 4.67368 180.224 0.582539 173.08 0.582539" fill="#12121a"/>
<path d="M142.027 24.1916C137.286 24.1916 136.595 19.4536 136.595 14.5001C136.595 9.54649 137.286 4.80852 142.027 4.80852C146.768 4.80852 147.458 9.54649 147.458 14.5001C147.458 19.4536 146.768 24.1916 142.027 24.1916ZM142.027 0.000488281C132.692 0.000488281 131.414 7.41737 131.414 14.5001C131.414 21.5828 132.692 28.9996 142.021 28.9996C151.351 28.9996 152.634 21.5828 152.634 14.5001C152.634 7.41737 151.394 0.000488281 142.027 0.000488281Z" fill="#12121a"/>
<path d="M115.155 10.2633L114.976 28.4228H119.934V0.577148H114.389L107.206 17.5346L100.024 0.577148H94.4844V28.4228H99.4427L99.2633 10.3711L105.385 24.6227H109.033L115.155 10.2633Z" fill="#12121a"/>
<path d="M70.3577 16.4513L72.6575 8.99669L74.8811 16.4513H70.3577ZM74.4027 0.000488281H70.9014L61.1641 28.4229H66.6335L68.8191 21.1893H76.3654L78.6597 28.4229H84.091L74.4027 0.000488281Z" fill="#12121a"/>
<path d="M41.597 12.5487H37.0735V5.38518H41.597C44.8047 5.38518 45.2777 6.86748 45.2777 8.74865C45.2777 10.6298 44.8047 12.5487 41.597 12.5487ZM48.4854 19.9225C47.8275 18.7313 47.1371 17.5346 46.5879 16.3811C49.6162 15.0444 50.6003 12.1822 50.6003 8.74865C50.6003 3.72501 48.3386 0.577148 41.1185 0.577148H32.0391V28.4228H37.0681V17.3568H41.4067L46.6912 28.4228H52.7805C51.6496 26.2883 49.7902 22.3804 48.4799 19.9225" fill="#12121a"/>
<path d="M11.1183 28.9996C14.799 28.9996 17.7512 28.2073 20.0129 27.1939V12.5488H11.3575V17.3569H14.9838V23.8682C13.891 24.0838 12.3578 24.1916 11.1183 24.1916C6.67095 24.1916 5.13778 19.6692 5.13778 14.5001C5.13778 9.33088 6.67095 4.80852 11.1183 4.80852C13.4887 4.80852 15.6743 5.23974 19.3931 6.75977V1.62832C17.5337 0.760503 14.7609 0.000488281 11.1183 0.000488281C2.66403 0.000488281 0 6.80289 0 14.5001C0 22.1972 2.66403 28.9996 11.1183 28.9996Z" fill="#12121a"/>
</g>
<defs>
<clipPath id="clip0_7568_63910">
<rect width="305.146" height="29" fill="#12121a"/>
</clipPath>
</defs>
</svg>
